<svg xmlns="http://www.w3.org/2000/svg" viewBox="0 0 383.63 169.86"><defs><style>.cls-1{fill:#cdb178;}.cls-2{fill:#80676c;}</style></defs><title>Asset 1</title><g id="Layer_2" data-name="Layer 2"><g id="Layer_1-2" data-name="Layer 1"><path class="cls-1" d="M1,16q-.23-7.51-1-14a40.61,40.61,0,0,0,6.83.76,17.16,17.16,0,0,0,2.66-.23l3.41-.53Q12.45,8,12.45,14.09h.3Q20.79.43,35.36.43A24.79,24.79,0,0,1,42.8,1.57a25.63,25.63,0,0,1,6.6,3.11,20.85,20.85,0,0,1,5.09,4.78,16.08,16.08,0,0,1,2.88,6h.3A26.75,26.75,0,0,1,67.62,4.3,27.12,27.12,0,0,1,82.11.43,30.13,30.13,0,0,1,91.37,1.8,19.45,19.45,0,0,1,98.73,6a19.45,19.45,0,0,1,4.86,7.44,30.59,30.59,0,0,1,1.75,10.93q0,2.58-.15,5.62t-.3,7.06q-.15,4-.3,9.11T104.42,58q0,4.1.08,7.89t.38,8.2a18.52,18.52,0,0,0-3.34-.3H95a18.49,18.49,0,0,0-3.34.3q.46-3.79,1-15.33t.53-32.18a29.4,29.4,0,0,0-.84-7.13,16,16,0,0,0-2.66-5.77,12.84,12.84,0,0,0-4.86-3.87,17.67,17.67,0,0,0-7.59-1.44A18.7,18.7,0,0,0,68,10.45a18.32,18.32,0,0,0-5.92,5,16,16,0,0,0-1.9,3.34,20.15,20.15,0,0,0-1.06,5.08q-.38,3.42-.53,9.56t-.15,16.92q0,6.53.23,11.91T59.19,74q-3.49-.31-6.68-.3t-6.68.3q.76-8.35,1.06-17t.3-17q0-7.13-.08-11.16a62.4,62.4,0,0,0-.38-6.37,19.73,19.73,0,0,0-.83-3.87,29.34,29.34,0,0,0-1.44-3.34,13.79,13.79,0,0,0-5.24-4.93,14.6,14.6,0,0,0-7.36-2q-10,0-14.72,6.53T12.45,33.21v12.9q0,6.83.23,14.34t1,13.58q-3.49-.31-6.83-.3T0,74Q.76,68,1,60.46t.23-14.34V30.33Q1.21,23.5,1,16Z"/><path class="cls-1" d="M115.55,51a27.39,27.39,0,0,1,2.06-11.35A21,21,0,0,1,123.12,32a22,22,0,0,1,7.69-4.26,28,28,0,0,1,17-.07,22,22,0,0,1,7.68,4.19,21.07,21.07,0,0,1,5.58,7.54,27.42,27.42,0,0,1,2.16,11.33,27.41,27.41,0,0,1-2.06,11.35,21,21,0,0,1-5.52,7.59,20.2,20.2,0,0,1-7.64,4.11,31.39,31.39,0,0,1-17,.07,20.14,20.14,0,0,1-7.73-4,21,21,0,0,1-5.58-7.54A27.38,27.38,0,0,1,115.55,51Zm8.64,0a42.06,42.06,0,0,0,.77,8,21.18,21.18,0,0,0,2.53,6.81,13.4,13.4,0,0,0,4.73,4.74,15.82,15.82,0,0,0,14.53-.06,13.4,13.4,0,0,0,4.69-4.78,21.18,21.18,0,0,0,2.47-6.84,43.33,43.33,0,0,0-.07-15.91A21.19,21.19,0,0,0,151.32,36a13.41,13.41,0,0,0-4.73-4.74,15.82,15.82,0,0,0-14.53.06,13.41,13.41,0,0,0-4.69,4.78A21.19,21.19,0,0,0,124.89,43,42.06,42.06,0,0,0,124.19,50.93Z"/><path class="cls-1" d="M207.36,64.71a24.22,24.22,0,0,1-2.11,3.39,17.13,17.13,0,0,1-3.34,3.39A16.89,16.89,0,0,1,197.15,74a19,19,0,0,1-6.38,1,21.67,21.67,0,0,1-7.32-1.28,16.48,16.48,0,0,1-6.38-4.17,21.43,21.43,0,0,1-4.52-7.46,31.12,31.12,0,0,1-1.72-10.95,29,29,0,0,1,1.87-10.9,23.66,23.66,0,0,1,4.86-7.71,19.52,19.52,0,0,1,6.78-4.62,20.23,20.23,0,0,1,7.61-1.52q10.9,0,15.12,9.82h.2V26.61q0-3.73,0-7.51t-.1-7.22q-.05-3.44-.1-6.48T206.87,0q1.18.2,2.26.34a16,16,0,0,0,2.16.15A14.92,14.92,0,0,0,213.4.34L215.71,0q-.3,3.14-.49,9.08t-.34,13.11q-.15,7.17-.25,14.73t-.1,13.85q0,6.78.1,12.18t.2,11.1a38.26,38.26,0,0,0-3.83-.2,37.29,37.29,0,0,0-3.73.2l.29-9.33Zm-27.89-13a32.38,32.38,0,0,0,1.23,9.72,18.25,18.25,0,0,0,3.14,6.14,10.13,10.13,0,0,0,4.37,3.19,14.14,14.14,0,0,0,4.81.88,11.23,11.23,0,0,0,6.58-1.92,15.7,15.7,0,0,0,4.57-5,23.37,23.37,0,0,0,2.65-7,37.78,37.78,0,0,0,.83-7.86q0-9.43-3.63-14.39t-10.7-5a11.37,11.37,0,0,0-6.14,1.62,13,13,0,0,0-4.32,4.52,22.43,22.43,0,0,0-2.55,6.78A39.4,39.4,0,0,0,179.47,51.75Z"/><path class="cls-1" d="M228.77,59.21q0-5.2.15-8.89t.15-7.32q0-3.44,0-7.46t-.15-8.15a21.56,21.56,0,0,0,4.12.49,21.29,21.29,0,0,0,4-.49q-.49,5.89-.74,12.91T236,54.7a26.43,26.43,0,0,0,.88,7.81,10.22,10.22,0,0,0,5.65,6.68,11.18,11.18,0,0,0,5,1,12.2,12.2,0,0,0,6.87-1.82,11.15,11.15,0,0,0,4-4.47q.69-1.67,1.08-2.85a17,17,0,0,0,.64-3.14,51.51,51.51,0,0,0,.29-5.3q0-3.34,0-9.13V35.25q0-2.16,0-4.12t-.15-3.73q1.08.2,2.06.34a14.49,14.49,0,0,0,4.12,0c.65-.1,1.31-.21,2-.34q-.49,7.66-.59,14.78t-.1,15.07q0,4.42.1,8.64t.29,8.15a37.46,37.46,0,0,0-7.66,0q.1-.88.15-1.87t0-2.06V65.89h-.2a16.66,16.66,0,0,1-6.58,6.92A17.88,17.88,0,0,1,245.17,75q-7.66,0-12-4.08T228.77,59.21Z"/><path class="cls-1" d="M285.87,21q-.05-3.93-.15-7.76t-.25-7.32q-.15-3.48-.34-5.94a26.31,26.31,0,0,0,4.42.49A26.35,26.35,0,0,0,294,0q-.2,2.46-.34,5.94t-.25,7.32q-.1,3.83-.15,7.76t0,7.27V46.06q0,3.34,0,7.27t.15,7.76q.1,3.83.25,7.27T294,74q-2.26-.2-4.42-.2t-4.42.2q.2-2.26.34-5.7t.25-7.27q.1-3.83.15-7.76t0-7.27V28.28Q285.92,24.94,285.87,21Z"/><path class="cls-1" d="M311.65,32.11a27.88,27.88,0,0,1,8.15-4.52,25.28,25.28,0,0,1,7.66-1.18,19.5,19.5,0,0,1,6.48,1,14.09,14.09,0,0,1,5,2.95A13.69,13.69,0,0,1,342.19,35a14.7,14.7,0,0,1,1.18,5.94q0,5.6-.2,11.15T343,63.83q0,1.18,0,2.5a7.34,7.34,0,0,0,.44,2.36,4.49,4.49,0,0,0,1.13,1.72,3.13,3.13,0,0,0,2.21.69c.33,0,.67,0,1,0a2.41,2.41,0,0,0,1-.34v2.16a11.59,11.59,0,0,1-2.7.79,20.11,20.11,0,0,1-3.58.29,6.18,6.18,0,0,1-6.78-5.79,26.41,26.41,0,0,1-7,5.2A19.23,19.23,0,0,1,320.39,75a17.14,17.14,0,0,1-4.81-.69,11,11,0,0,1-4.17-2.26,12.35,12.35,0,0,1-2.95-3.78,11,11,0,0,1-1.13-5.06q0-5.89,3.68-9.13t10.16-4.32q5.3-.88,8.3-1.52a20.79,20.79,0,0,0,4.42-1.33,3,3,0,0,0,1.72-1.62,8.15,8.15,0,0,0,.29-2.41,18.62,18.62,0,0,0-.59-4.71,11,11,0,0,0-1.87-3.93,9.44,9.44,0,0,0-3.34-2.7,11.11,11.11,0,0,0-5-1,15.58,15.58,0,0,0-7.32,1.77,11.64,11.64,0,0,0-5.06,4.91h-1.08Zm24.26,17.48a24.69,24.69,0,0,1-3.88,1q-2.21.39-4.47.83a42.71,42.71,0,0,0-4.47,1.13,14.53,14.53,0,0,0-3.93,1.87,9.08,9.08,0,0,0-2.75,2.95,8.87,8.87,0,0,0-1,4.52q0,4.62,2.65,7a8.66,8.66,0,0,0,5.89,2.36,12,12,0,0,0,6.82-2.06,15.49,15.49,0,0,0,4.76-4.81Z"/><path class="cls-1" d="M380.34,34.37a8.85,8.85,0,0,0-2.9-.49A8.27,8.27,0,0,0,373.22,35a9.83,9.83,0,0,0-3.14,2.9,13.77,13.77,0,0,0-2,4.32,20.14,20.14,0,0,0-.69,5.35v10.8q0,6.58,0,10.07a48.41,48.41,0,0,0,.34,5.65,39.21,39.21,0,0,0-3.93-.2,41.19,41.19,0,0,0-4.12.2q.29-3.34.34-9.08t0-14.09V47.73q0-3.83,0-8.84t-.34-11.49q1.08.2,2.06.34a13.88,13.88,0,0,0,2.06.15,12.62,12.62,0,0,0,1.87-.15q1-.15,2.06-.34-.39,3.54-.44,5.6t0,3.93l.2.1q5.79-10.61,13-10.61a10.32,10.32,0,0,1,1.52.1,7.92,7.92,0,0,1,1.62.49,11,11,0,0,0-.59,3.58q-.1,2.41-.1,4.37l-.69.49A4.41,4.41,0,0,0,380.34,34.37Z"/><path class="cls-2" d="M37.81,65Q37.3,71.45,37,77.63t-.59,12.45q1.86,0,6.95-.09t11-.42a6.79,6.79,0,0,0-.17,1.86V95a5.91,5.91,0,0,0,.17,1.69q-2.2-.17-4.57-.25t-5.08-.09h-8.3q-.17.68-.42,5.42T35.6,113q-.17,6.52-.25,13.64t-.09,12.71q0,4.74.25,9.32a27.88,27.88,0,0,0,1.61,8.22,13.3,13.3,0,0,0,4.07,5.84Q43.9,165,49,165a26,26,0,0,0,3.64-.34,28.33,28.33,0,0,0,4-.85v4.07q-2.88.51-6.35,1.27a31.18,31.18,0,0,1-6.69.76q-10.67,0-15.75-5.25T22.73,149.2q0-4.57.17-9.91t.42-11.69q.25-6.35.42-14.06t.17-17.19H18.49c-.91,0-1.86,0-2.88.09s-2.09.14-3.22.25q.17-1,.25-1.95c.06-.62.08-1.27.08-1.95s0-1.13-.08-1.69S12.51,90,12.4,89.4q7.62.51,11.18.51-.17-3.39-.25-8.47t-.42-10.5L37,65Z"/><path class="cls-2" d="M60,145.71a27.39,27.39,0,0,1,2.11-11.34,21,21,0,0,1,5.55-7.56,22,22,0,0,1,7.71-4.22,28,28,0,0,1,17,0,22,22,0,0,1,7.66,4.22,21.07,21.07,0,0,1,5.55,7.56,27.42,27.42,0,0,1,2.11,11.34A27.41,27.41,0,0,1,105.66,157a21,21,0,0,1-5.55,7.56,20.2,20.2,0,0,1-7.66,4.08,31.39,31.39,0,0,1-17,0,20.14,20.14,0,0,1-7.71-4.08A21,21,0,0,1,62.16,157,27.38,27.38,0,0,1,60,145.71Zm8.64,0a42.06,42.06,0,0,0,.74,8,21.18,21.18,0,0,0,2.5,6.82,13.4,13.4,0,0,0,4.71,4.76A13.9,13.9,0,0,0,83.91,167a13.9,13.9,0,0,0,7.27-1.77,13.4,13.4,0,0,0,4.71-4.76,21.18,21.18,0,0,0,2.5-6.82,43.33,43.33,0,0,0,0-15.91,21.19,21.19,0,0,0-2.5-6.82,13.41,13.41,0,0,0-4.71-4.76,13.9,13.9,0,0,0-7.27-1.77,13.9,13.9,0,0,0-7.27,1.77,13.41,13.41,0,0,0-4.71,4.76,21.19,21.19,0,0,0-2.5,6.82A42.06,42.06,0,0,0,68.69,145.71Z"/><path class="cls-2" d="M114.64,145.71a27.39,27.39,0,0,1,2.11-11.34,21,21,0,0,1,5.55-7.56,22,22,0,0,1,7.71-4.22,28,28,0,0,1,17,0,22,22,0,0,1,7.66,4.22,21.07,21.07,0,0,1,5.55,7.56,27.42,27.42,0,0,1,2.11,11.34A27.41,27.41,0,0,1,160.26,157a21,21,0,0,1-5.55,7.56,20.2,20.2,0,0,1-7.66,4.08,31.39,31.39,0,0,1-17,0,20.14,20.14,0,0,1-7.71-4.08,21,21,0,0,1-5.55-7.56A27.38,27.38,0,0,1,114.64,145.71Zm8.64,0a42.06,42.06,0,0,0,.74,8,21.18,21.18,0,0,0,2.5,6.82,13.4,13.4,0,0,0,4.71,4.76,15.82,15.82,0,0,0,14.53,0,13.4,13.4,0,0,0,4.71-4.76,21.18,21.18,0,0,0,2.5-6.82,43.33,43.33,0,0,0,0-15.91,21.19,21.19,0,0,0-2.5-6.82,13.41,13.41,0,0,0-4.71-4.76,15.82,15.82,0,0,0-14.53,0,13.41,13.41,0,0,0-4.71,4.76,21.19,21.19,0,0,0-2.5,6.82A42.06,42.06,0,0,0,123.29,145.71Z"/><path class="cls-2" d="M175.77,115.85q-.05-3.93-.15-7.76t-.25-7.32q-.15-3.48-.34-5.94a20.14,20.14,0,0,0,8.84,0q-.2,2.46-.34,5.94t-.25,7.32q-.1,3.83-.15,7.76t0,7.27V140.9q0,3.34,0,7.27t.15,7.76q.1,3.83.25,7.27t.34,5.7q-2.26-.2-4.42-.2t-4.42.2q.2-2.26.34-5.7t.25-7.27q.1-3.83.15-7.76t0-7.27V123.12Q175.82,119.78,175.77,115.85Z"/><path class="cls-2" d="M201.31,115.85q-.05-3.93-.15-7.76t-.25-7.32q-.15-3.48-.34-5.94a20.14,20.14,0,0,0,8.84,0q-.2,2.46-.34,5.94t-.25,7.32q-.1,3.83-.15,7.76t0,7.27V141q0,1.87,1.18,1.87a3,3,0,0,0,1.72-.69l2.11-1.57q.88-.69,3-2.65t4.71-4.57q2.6-2.6,5.35-5.55t5-5.6a15.33,15.33,0,0,0,3.73.49,16,16,0,0,0,2.16-.15l2.75-.34q-6.19,5-11.83,9.87T217.75,142q5.6,6.78,11.54,13.55t12.13,13.35a25.71,25.71,0,0,0-3-.2h-5a18.61,18.61,0,0,0-2.65.2q-2.16-2.45-4.91-5.74l-5.45-6.53q-2.7-3.24-5.16-6.09t-4.22-4.71a3.46,3.46,0,0,0-.69-.69,1.31,1.31,0,0,0-.79-.29q-1,0-1,1.18v5.89q0,4.42.15,8.59t.64,8.4q-2.26-.2-4.42-.2t-4.42.2q.2-2.26.34-5.7t.25-7.27q.1-3.83.15-7.76t0-7.27V123.12Q201.35,119.78,201.31,115.85Z"/><path class="cls-2" d="M250.85,105.15a5,5,0,1,1,1.47,3.54A4.82,4.82,0,0,1,250.85,105.15Zm1.38,35.45q0-4.42-.15-9.28t-.64-9.08a20.12,20.12,0,0,0,8.84,0q-.49,4.22-.64,9.08t-.15,9.28v10.21q0,4.42.15,9.28t.64,8.79q-2.26-.2-4.42-.2t-4.42.2q.49-3.93.64-8.79t.15-9.28Z"/><path class="cls-2" d="M285.9,109.08q-.29,3.73-.44,7.32t-.34,7.22q1.08,0,4,0t6.38-.25a3.93,3.93,0,0,0-.1,1.08v2.06a3.42,3.42,0,0,0,.1,1q-1.28-.1-2.65-.15t-2.95,0h-4.81q-.1.39-.25,3.14t-.25,6.53q-.1,3.78-.15,7.9t0,7.37q0,2.75.15,5.4a16.16,16.16,0,0,0,.93,4.76,7.71,7.71,0,0,0,2.36,3.39,7,7,0,0,0,4.52,1.28,15.06,15.06,0,0,0,2.11-.2,16.42,16.42,0,0,0,2.31-.49v2.36q-1.67.29-3.68.74a18.08,18.08,0,0,1-3.88.44q-6.19,0-9.13-3t-2.95-8.94q0-2.65.1-5.75t.25-6.78q.15-3.68.25-8.15t.1-10h-3.14c-.52,0-1.08,0-1.67,0s-1.21.08-1.87.15q.1-.59.15-1.13c0-.36,0-.74,0-1.13s0-.65,0-1-.08-.65-.15-1q4.42.29,6.48.29-.1-2-.15-4.91t-.25-6.09l8.15-3.44Z"/></g></g></svg>